<svg xmlns="http://www.w3.org/2000/svg" viewBox="0 0 1024 1024" width="128" height="128">
  <path fill="currentColor" d="M752.128 183.296v-30.208c0-30.72-24.576-56.32-54.784-56.32-30.208 0-54.784 25.6-54.784 56.32v400.896c-17.408-9.216-37.376-14.336-58.88-14.336-70.144 0-127.488 58.368-127.488 129.536s57.344 129.536 127.488 129.536c70.144 0 127.488-58.368 127.488-129.536 0-9.216-1.024-18.432-2.56-27.136V306.688c48.128 28.672 84.992 81.92 100.352 141.824 4.096 15.872 19.456 26.112 36.352 26.112 3.072 0 5.632-0.512 8.704-1.536 20.48-5.12 32.768-26.112 27.648-46.592-20.48-80.896-70.656-151.552-136.704-190.976v-51.712c0-30.72-24.576-56.32-54.784-56.32-30.208 0-54.784 25.6-54.784 56.32v30.208zM377.344 540.16v-387.072c0-30.72-24.576-56.32-54.784-56.32-30.208 0-54.784 25.6-54.784 56.32v400.896c-17.408-9.216-37.376-14.336-58.88-14.336-70.144 0-127.488 58.368-127.488 129.536s57.344 129.536 127.488 129.536c70.144 0 127.488-58.368 127.488-129.536 0-9.216-1.024-18.432-2.56-27.136V540.16z"/>
</svg>
